<mxfile host="app.diagrams.net" modified="2021-03-27T12:23:09.088Z" agent="5.0 (Windows NT 10.0; Win64; x64) AppleWebKit/537.36 (KHTML, like Gecko) Chrome/88.0.4324.104 Safari/537.36" etag="2sRb3QCZELJ5l3qZWDjZ" version="14.5.1" type="github">
  <diagram id="rWiFdlvQQQaDLF6TGigb" name="第 1 页">
    <mxGraphModel dx="870" dy="595" grid="1" gridSize="10" guides="1" tooltips="1" connect="1" arrows="1" fold="1" page="1" pageScale="1" pageWidth="827" pageHeight="1169" math="0" shadow="0">
      <root>
        <mxCell id="0" />
        <mxCell id="1" parent="0" />
        <mxCell id="T0KN-zXHJp2ZT1nz6t0y-4" value="" style="group" vertex="1" connectable="0" parent="1">
          <mxGeometry x="180" y="80" width="330" height="560" as="geometry" />
        </mxCell>
        <mxCell id="T0KN-zXHJp2ZT1nz6t0y-2" value="" style="rounded=1;whiteSpace=wrap;html=1;fillColor=#fff2cc;strokeColor=#d6b656;" vertex="1" parent="T0KN-zXHJp2ZT1nz6t0y-4">
          <mxGeometry width="330" height="560" as="geometry" />
        </mxCell>
        <mxCell id="T0KN-zXHJp2ZT1nz6t0y-3" value="&lt;font style=&quot;font-size: 16px&quot;&gt;funcA&lt;/font&gt;" style="text;html=1;strokeColor=none;fillColor=none;align=center;verticalAlign=middle;whiteSpace=wrap;rounded=0;" vertex="1" parent="T0KN-zXHJp2ZT1nz6t0y-4">
          <mxGeometry x="30" y="50" width="40" height="20" as="geometry" />
        </mxCell>
        <mxCell id="T0KN-zXHJp2ZT1nz6t0y-5" value="&lt;font style=&quot;font-size: 16px&quot;&gt;边界条件&lt;/font&gt;" style="rounded=1;whiteSpace=wrap;html=1;fillColor=#ffe6cc;strokeColor=#d79b00;" vertex="1" parent="T0KN-zXHJp2ZT1nz6t0y-4">
          <mxGeometry x="84" y="70" width="150" height="80" as="geometry" />
        </mxCell>
        <mxCell id="T0KN-zXHJp2ZT1nz6t0y-6" value="&lt;font style=&quot;font-size: 16px&quot;&gt;处理函数&lt;/font&gt;" style="rounded=1;whiteSpace=wrap;html=1;fillColor=#e1d5e7;strokeColor=#9673a6;" vertex="1" parent="T0KN-zXHJp2ZT1nz6t0y-4">
          <mxGeometry x="84" y="190" width="150" height="80" as="geometry" />
        </mxCell>
        <mxCell id="T0KN-zXHJp2ZT1nz6t0y-7" value="&lt;font style=&quot;font-size: 16px&quot;&gt;调用funcA函数&lt;/font&gt;" style="rounded=1;whiteSpace=wrap;html=1;fillColor=#ffe6cc;strokeColor=#d79b00;" vertex="1" parent="T0KN-zXHJp2ZT1nz6t0y-4">
          <mxGeometry x="84" y="310" width="150" height="80" as="geometry" />
        </mxCell>
        <mxCell id="T0KN-zXHJp2ZT1nz6t0y-8" value="&lt;span style=&quot;font-size: 16px&quot;&gt;return返回值&lt;/span&gt;" style="rounded=1;whiteSpace=wrap;html=1;fillColor=#ffe6cc;strokeColor=#d79b00;" vertex="1" parent="T0KN-zXHJp2ZT1nz6t0y-4">
          <mxGeometry x="84" y="425" width="150" height="80" as="geometry" />
        </mxCell>
      </root>
    </mxGraphModel>
  </diagram>
</mxfile>
